<svg xmlns="http://www.w3.org/2000/svg" width="2586.5" height="511" viewBox="0 0 2586.5 511">
  <g id="Group_1" data-name="Group 1" transform="translate(-229 -1645.5)">
    <path id="icon" d="M0,96A64.059,64.059,0,0,1,64,32H448a64.059,64.059,0,0,1,64,64V416a64.059,64.059,0,0,1-64,64H64A64.059,64.059,0,0,1,0,416ZM48,368v32a16.047,16.047,0,0,0,16,16H96a16.047,16.047,0,0,0,16-16V368a16.047,16.047,0,0,0-16-16H64A16.047,16.047,0,0,0,48,368Zm368-16a16.047,16.047,0,0,0-16,16v32a16.047,16.047,0,0,0,16,16h32a16.047,16.047,0,0,0,16-16V368a16.047,16.047,0,0,0-16-16ZM48,240v32a16.047,16.047,0,0,0,16,16H96a16.047,16.047,0,0,0,16-16V240a16.047,16.047,0,0,0-16-16H64A16.047,16.047,0,0,0,48,240Zm368-16a16.047,16.047,0,0,0-16,16v32a16.047,16.047,0,0,0,16,16h32a16.047,16.047,0,0,0,16-16V240a16.047,16.047,0,0,0-16-16ZM48,112v32a16.047,16.047,0,0,0,16,16H96a16.047,16.047,0,0,0,16-16V112A16.047,16.047,0,0,0,96,96H64A16.047,16.047,0,0,0,48,112ZM416,96a16.047,16.047,0,0,0-16,16v32a16.047,16.047,0,0,0,16,16h32a16.047,16.047,0,0,0,16-16V112a16.047,16.047,0,0,0-16-16ZM160,128v64a31.966,31.966,0,0,0,32,32H320a31.966,31.966,0,0,0,32-32V128a31.966,31.966,0,0,0-32-32H192A31.966,31.966,0,0,0,160,128Zm32,160a31.966,31.966,0,0,0-32,32v64a31.966,31.966,0,0,0,32,32H320a31.966,31.966,0,0,0,32-32V320a31.966,31.966,0,0,0-32-32Z" transform="translate(229 1645)"/>
    <text id="Filmopedia" transform="translate(815.5 2059.5)" stroke="#000" stroke-width="1" font-size="383" font-family="SegoeUI-Bold, Segoe UI" font-weight="700"><tspan x="0" y="0">Filmopedia</tspan></text>
  </g>
</svg>
